
<svg version="1.1" id="Layer_1" xmlns="http://www.w3.org/2000/svg" xmlns:xlink="http://www.w3.org/1999/xlink" x="0px" y="0px"
	 width="100%" viewBox="0 0 536 1054" enable-background="new 0 0 536 1054" xml:space="preserve">
<path fill="#526852" opacity="1.000000" stroke="none" 
	d="
M537.000000,25.000008 
	C537.000000,368.229095 537.000000,711.458191 537.000000,1055.000000 
	C419.973328,1055.000000 302.946350,1055.000000 185.405609,1054.660400 
	C183.594498,1052.218140 182.297180,1050.115479 181.461578,1047.924561 
	C184.085495,1047.817871 186.247696,1047.784058 188.409882,1047.783447 
	C265.429810,1047.764648 342.449768,1047.758301 419.469696,1047.711304 
	C424.281982,1047.708374 429.094086,1047.391479 434.278809,1047.373047 
	C436.426422,1047.321167 438.201508,1047.116943 440.418091,1046.953369 
	C444.231812,1046.693481 447.604095,1046.393188 451.160156,1046.225952 
	C451.887024,1046.203491 452.430084,1046.047974 453.390961,1045.917236 
	C455.171082,1045.703369 456.533386,1045.464966 458.160278,1045.336670 
	C458.938385,1045.252075 459.451965,1045.057617 460.342804,1044.868408 
	C461.444519,1044.683105 462.168945,1044.492432 463.165710,1044.392090 
	C463.941010,1044.253906 464.444061,1044.025513 465.326874,1043.781494 
	C494.539246,1034.917358 514.084717,1016.277893 519.520874,986.533081 
	C522.989502,967.554016 522.878235,947.767517 522.919250,928.340027 
	C523.186768,801.713013 523.062988,675.085083 523.052246,548.457458 
	C523.049194,513.302551 522.995422,478.147614 523.169983,442.870880 
	C523.618225,442.540894 523.830872,442.305176 524.379150,442.101807 
	C525.698853,441.443787 526.652283,440.725861 527.683716,439.545380 
	C527.709045,423.053436 527.656372,407.024017 527.684998,390.532471 
	C527.711304,371.715332 527.656311,353.360382 527.687866,334.546814 
	C527.798889,330.638214 527.606079,327.169159 527.906250,323.743317 
	C528.240234,319.931244 526.525574,318.674500 523.057129,318.509277 
	C522.988708,244.899475 522.989563,171.756607 522.792664,98.614265 
	C522.736877,77.908684 520.416443,57.638111 508.163818,40.008652 
	C515.143799,36.392052 521.749878,32.822090 528.387268,29.311354 
	C531.224548,27.810640 534.127136,26.433376 537.000000,25.000008 
z"/>
<path fill="#526852" opacity="1.000000" stroke="none" 
	d="
M1.000000,1013.000000 
	C1.000000,683.969116 1.000000,354.938171 1.364010,25.465981 
	C2.998608,25.696705 4.411127,26.190159 5.517095,27.069269 
	C13.599443,33.493767 22.486891,38.347733 32.338280,41.528343 
	C28.884716,49.260658 25.533115,56.651943 21.981482,64.250488 
	C21.753378,65.007439 21.725309,65.557129 21.540161,66.449432 
	C21.290012,67.535942 21.196945,68.279839 20.910770,69.238098 
	C20.719597,70.003555 20.721535,70.554665 20.574829,71.477859 
	C20.324987,72.909790 20.223787,73.969620 19.920504,75.289558 
	C19.724810,76.400253 19.731203,77.250847 19.602768,78.514847 
	C19.343662,80.959702 19.219387,82.991142 18.910446,85.265549 
	C18.762707,86.687729 18.799637,87.866966 18.758533,89.454338 
	C18.430801,100.902344 18.181103,111.942207 17.796547,123.363159 
	C17.604292,125.574005 17.497601,127.403740 17.496880,129.233521 
	C17.486061,156.731659 17.525236,184.229950 17.410246,211.727600 
	C17.402342,213.617996 16.783453,216.595398 15.554373,217.176834 
	C12.469801,218.636093 13.124334,220.702545 13.327509,223.443604 
	C13.289515,230.273331 13.354949,236.643127 13.326878,243.441589 
	C13.295981,245.909088 13.358590,247.947922 13.336048,250.321198 
	C13.309889,251.108231 13.368880,251.560837 13.336954,252.406647 
	C13.724878,253.894791 14.113582,255.041351 14.704032,256.072357 
	C15.554397,257.557251 17.320787,258.937256 17.360365,260.398224 
	C17.608332,269.552094 17.516237,278.716248 17.449194,287.876343 
	C17.439888,289.148071 17.297585,291.264954 16.621254,291.543274 
	C13.176630,292.960785 13.942204,295.770477 13.939502,298.317505 
	C13.915835,320.629608 13.919512,342.941711 13.948440,365.253784 
	C13.950127,366.555176 13.825351,368.710266 14.463330,369.020477 
	C19.018827,371.235657 17.245441,375.252472 17.441666,378.615723 
	C17.683868,382.766937 17.584755,386.938080 17.446110,391.304718 
	C17.172287,391.671722 17.085484,391.834595 16.707355,391.972412 
	C15.932975,392.264374 15.449917,392.581329 14.884822,393.030579 
	C14.802786,393.162811 15.014749,393.390778 14.681610,393.628082 
	C14.201033,394.507141 13.923948,395.149078 13.924881,395.790619 
	C13.959367,419.530731 14.019582,443.270844 14.070580,467.396301 
	C17.505587,469.882416 17.539654,473.152222 17.538282,476.724640 
	C17.480547,627.010071 17.488089,777.295532 17.512733,927.580994 
	C17.513084,929.720764 17.832354,931.860474 17.900198,934.459961 
	C18.141237,945.248291 18.484858,955.576782 18.679749,966.234253 
	C18.715099,967.701538 18.899183,968.839905 19.047047,970.415955 
	C19.254419,972.868713 19.498014,974.883850 19.612411,977.204590 
	C19.696262,978.329285 19.909311,979.148315 20.106976,980.368591 
	C20.302578,981.811768 20.513563,982.853699 20.613438,984.162354 
	C20.701660,984.944336 20.900993,985.459656 21.097996,986.352234 
	C21.296389,987.450928 21.497108,988.172302 21.604532,989.165588 
	C21.733294,989.942810 21.955353,990.448181 22.199192,991.326843 
	C25.417910,998.812622 28.614847,1005.925110 31.354992,1013.029175 
	C20.932135,1013.013916 10.966067,1013.006958 1.000000,1013.000000 
z"/>
<path fill="#4E644E" opacity="1.000000" stroke="none" 
	d="
M1.000000,1013.468628 
	C10.966067,1013.006958 20.932135,1013.013916 31.640949,1013.212891 
	C36.585728,1017.937988 40.787758,1022.471069 45.030563,1027.338135 
	C46.047882,1028.447998 47.024429,1029.223755 48.109222,1030.231201 
	C48.508766,1030.625854 48.800068,1030.789062 49.193207,1031.274170 
	C54.891052,1034.591064 60.487061,1037.585815 66.350723,1040.743042 
	C67.217941,1041.066406 67.817505,1041.227417 68.663269,1041.652832 
	C72.302467,1042.771484 75.695465,1043.625488 79.403152,1044.595703 
	C80.162155,1044.740601 80.606476,1044.769165 81.300041,1045.014893 
	C82.399498,1045.260376 83.249725,1045.288818 84.476028,1045.459229 
	C85.916962,1045.674072 86.981819,1045.746826 88.349625,1046.031372 
	C90.132881,1046.276978 91.613167,1046.310791 93.510712,1046.472534 
	C95.969032,1046.667969 98.010086,1046.735474 100.397926,1047.005127 
	C105.193115,1047.259033 109.641502,1047.310791 114.542282,1047.462158 
	C119.292656,1047.647461 123.590363,1047.788086 127.888672,1047.809326 
	C145.592316,1047.896851 163.296127,1047.948242 180.999878,1048.012817 
	C182.297180,1050.115479 183.594498,1052.218140 184.945908,1054.660400 
	C123.785606,1055.000000 62.571213,1055.000000 1.000000,1055.000000 
	C1.000000,1041.314453 1.000000,1027.625854 1.000000,1013.468628 
z"/>
<path fill="#212120" opacity="1.000000" stroke="none" 
	d="
M270.000000,1.000000 
	C352.354218,1.000000 434.708466,1.000000 517.475525,1.343055 
	C516.157593,3.343447 514.489319,5.072915 512.680847,6.640614 
	C510.172791,8.814800 507.559387,10.867488 504.523407,12.983376 
	C497.924255,13.002392 491.789795,12.899204 485.662476,13.063223 
	C482.432343,13.149689 479.214691,13.702466 475.614624,14.008053 
	C456.543671,7.043007 436.945770,7.162240 417.484528,7.062456 
	C371.998749,6.829234 326.510651,7.058068 281.023468,7.076365 
	C277.697235,7.077703 274.370972,6.890787 271.045349,6.421148 
	C270.697327,4.367269 270.348663,2.683635 270.000000,1.000000 
z"/>
<path fill="#384838" opacity="1.000000" stroke="none" 
	d="
M269.531342,1.000000 
	C270.348663,2.683635 270.697327,4.367269 270.589264,6.552580 
	C230.564117,7.072630 190.995712,7.087703 151.427292,7.111053 
	C136.303101,7.119978 121.178917,7.147846 105.822083,6.909136 
	C104.047363,6.950181 102.505287,7.249169 100.521912,7.672004 
	C92.724442,8.556555 85.368279,9.317261 77.710670,9.810802 
	C65.717316,8.026731 53.997864,6.685267 42.354794,4.857318 
	C39.765163,4.450749 37.444500,2.330972 35.000000,1.000000 
	C113.020897,1.000000 191.041794,1.000000 269.531342,1.000000 
z"/>
<path fill="#4A5F4A" opacity="1.000000" stroke="none" 
	d="
M32.440247,41.187313 
	C22.486891,38.347733 13.599443,33.493767 5.517095,27.069269 
	C4.411127,26.190159 2.998608,25.696705 1.364010,25.012348 
	C1.000000,17.118670 1.000000,9.237338 1.000000,1.000000 
	C3.662101,1.000000 6.340002,1.000000 9.521076,1.364055 
	C14.369871,11.727710 23.053106,16.738562 32.361111,20.910044 
	C36.823074,22.909721 41.486691,24.459429 45.921219,26.507618 
	C41.335716,31.597313 36.887981,36.392311 32.440247,41.187313 
z"/>
<path fill="#465745" opacity="1.000000" stroke="none" 
	d="
M46.058983,26.212923 
	C41.486691,24.459429 36.823074,22.909721 32.361111,20.910044 
	C23.053106,16.738562 14.369871,11.727710 10.012125,1.364055 
	C18.020901,1.000000 26.041801,1.000000 34.531349,1.000000 
	C37.444500,2.330972 39.765163,4.450749 42.354794,4.857318 
	C53.997864,6.685267 65.717316,8.026731 77.423355,10.039207 
	C65.614754,13.032428 55.577347,19.103270 46.058983,26.212923 
z"/>
<path fill="#495D49" opacity="1.000000" stroke="none" 
	d="
M537.000000,24.555843 
	C534.127136,26.433376 531.224548,27.810640 528.387268,29.311354 
	C521.749878,32.822090 515.143799,36.392052 507.885620,39.834484 
	C501.123230,33.665573 495.000183,27.600210 489.086304,21.181797 
	C490.790527,20.223419 492.260895,19.166466 493.784576,19.082987 
	C508.184540,18.294050 522.593567,17.670918 537.000000,17.000000 
	C537.000000,19.370558 537.000000,21.741116 537.000000,24.555843 
z"/>
<path fill="#272727" opacity="1.000000" stroke="none" 
	d="
M504.991058,12.972160 
	C507.559387,10.867488 510.172791,8.814800 512.680847,6.640614 
	C514.489319,5.072915 516.157593,3.343447 517.944214,1.343055 
	C524.238159,1.000000 530.476318,1.000000 537.000000,1.000000 
	C537.000000,4.675759 537.000000,8.358705 536.531372,12.518136 
	C525.705444,12.987134 515.348267,12.979646 504.991058,12.972160 
z"/>
<path fill="#384838" opacity="1.000000" stroke="none" 
	d="
M504.523407,12.983372 
	C515.348267,12.979646 525.705444,12.987134 536.531372,12.997312 
	C537.000000,14.066669 537.000000,15.133339 537.000000,16.600002 
	C522.593567,17.670918 508.184540,18.294050 493.784576,19.082987 
	C492.260895,19.166466 490.790527,20.223419 488.751648,21.041916 
	C484.135681,18.851622 480.063568,16.448156 475.991425,14.044693 
	C479.214691,13.702466 482.432343,13.149689 485.662476,13.063223 
	C491.789795,12.899204 497.924255,13.002392 504.523407,12.983372 
z"/>
<path fill="#D8D2CE" opacity="1.000000" stroke="none" 
	d="
M475.614624,14.008050 
	C480.063568,16.448156 484.135681,18.851622 488.542480,21.394966 
	C495.000183,27.600210 501.123230,33.665573 507.524414,39.905106 
	C520.416443,57.638111 522.736877,77.908684 522.792664,98.614265 
	C522.989563,171.756607 522.988708,244.899475 522.791016,318.830566 
	C522.360657,320.758545 522.064575,321.898071 522.063843,323.037750 
	C522.039673,361.601990 522.033752,400.166199 522.082275,438.730377 
	C522.084106,440.151520 522.657776,441.571960 522.964905,442.992706 
	C522.995422,478.147614 523.049194,513.302551 523.052246,548.457458 
	C523.062988,675.085083 523.186768,801.713013 522.919250,928.340027 
	C522.878235,947.767517 522.989502,967.554016 519.520874,986.533081 
	C514.084717,1016.277893 494.539246,1034.917358 465.167053,1043.625000 
	C464.049408,1043.756714 463.471405,1044.029297 462.893433,1044.301880 
	C462.168945,1044.492432 461.444519,1044.683105 460.192657,1044.703125 
	C459.075409,1044.764038 458.485565,1044.995239 457.895691,1045.226562 
	C456.533386,1045.464966 455.171082,1045.703369 453.217377,1045.738770 
	C452.076111,1045.721436 451.526245,1045.907227 450.976379,1046.092896 
	C447.604095,1046.393188 444.231812,1046.693481 440.149597,1046.735352 
	C437.595184,1046.724731 435.750732,1046.972778 433.906281,1047.220703 
	C429.094086,1047.391479 424.281982,1047.708374 419.469696,1047.711304 
	C342.449768,1047.758301 265.429810,1047.764648 188.409882,1047.783447 
	C186.247696,1047.784058 184.085495,1047.817871 181.461594,1047.924561 
	C163.296127,1047.948242 145.592316,1047.896851 127.888672,1047.809326 
	C123.590363,1047.788086 119.292656,1047.647461 114.327080,1047.169067 
	C109.123375,1046.785278 104.587250,1046.794189 100.051132,1046.802979 
	C98.010086,1046.735474 95.969032,1046.667969 93.345963,1046.211670 
	C91.191521,1045.821655 89.619095,1045.820557 88.046669,1045.819580 
	C86.981819,1045.746826 85.916962,1045.674072 84.350090,1045.225830 
	C82.915649,1044.832886 81.983223,1044.815308 81.050804,1044.797729 
	C80.606476,1044.769165 80.162155,1044.740601 79.239761,1044.299927 
	C75.313484,1043.054810 71.865273,1042.221558 68.417068,1041.388428 
	C67.817505,1041.227417 67.217941,1041.066406 66.228340,1040.441772 
	C60.255985,1036.969482 54.673668,1033.960938 49.091362,1030.952271 
	C48.800068,1030.789062 48.508766,1030.625854 48.066547,1029.896484 
	C46.940357,1028.554810 45.965088,1027.779541 44.989803,1027.004150 
	C40.787758,1022.471069 36.585728,1017.937988 32.097740,1013.221191 
	C28.614847,1005.925110 25.417910,998.812622 22.358385,991.169128 
	C22.229811,990.056580 21.963823,989.475159 21.697834,988.893677 
	C21.497108,988.172302 21.296389,987.450928 21.267677,986.202026 
	C21.201309,985.081543 20.962933,984.488586 20.724552,983.895569 
	C20.513563,982.853699 20.302578,981.811768 20.297928,980.177063 
	C20.250046,978.689148 19.995829,977.794006 19.741610,976.898926 
	C19.498014,974.883850 19.254419,972.868713 19.253799,970.197632 
	C19.274002,968.329529 19.051233,967.117432 18.828470,965.905334 
	C18.484858,955.576782 18.141237,945.248291 18.158709,934.135742 
	C18.673428,931.207947 18.961235,929.064209 18.961544,926.920410 
	C18.983080,777.941589 18.989305,628.962708 18.946157,479.983887 
	C18.944813,475.345642 18.412436,470.707520 18.335079,465.710999 
	C18.670973,463.369232 18.928244,461.384491 18.908028,459.402618 
	C18.692480,438.269440 18.432947,417.136719 18.361664,395.770325 
	C18.101332,394.650452 17.664837,393.764130 17.162960,392.659790 
	C17.097578,392.441772 16.998678,391.997437 16.998678,391.997437 
	C17.085484,391.834595 17.172287,391.671722 17.749681,391.097900 
	C18.487499,389.080322 18.950413,387.473755 18.951057,385.867004 
	C18.985518,299.976074 18.987186,214.085175 18.936804,128.194290 
	C18.935783,126.456688 18.281120,124.719467 17.931402,122.982071 
	C18.181103,111.942207 18.430801,100.902344 19.008497,89.237419 
	C19.256033,87.415771 19.175571,86.219177 19.095112,85.022591 
	C19.219387,82.991142 19.343662,80.959702 19.827026,78.376205 
	C20.164938,76.892593 20.143763,75.961021 20.122589,75.029449 
	C20.223787,73.969620 20.324987,72.909790 20.774536,71.373672 
	C21.116549,70.272827 21.110212,69.648285 21.103878,69.023735 
	C21.196945,68.279839 21.290012,67.535942 21.740648,66.350533 
	C22.125982,65.287086 22.153749,64.665161 22.181517,64.043228 
	C25.533115,56.651943 28.884716,49.260658 32.338280,41.528343 
	C36.887981,36.392311 41.335716,31.597313 45.921219,26.507618 
	C55.577347,19.103270 65.614754,13.032428 77.724800,10.306372 
	C85.368279,9.317261 92.724442,8.556555 100.884422,7.780514 
	C103.143738,7.565812 104.599236,7.366446 106.054733,7.167080 
	C121.178917,7.147846 136.303101,7.119978 151.427292,7.111053 
	C190.995712,7.087703 230.564117,7.072630 270.588623,6.922826 
	C274.370972,6.890787 277.697235,7.077703 281.023468,7.076365 
	C326.510651,7.058068 371.998749,6.829234 417.484528,7.062456 
	C436.945770,7.162240 456.543671,7.043007 475.614624,14.008050 
M128.045883,1041.772095 
	C128.630295,1046.189575 132.109436,1044.954102 134.678101,1044.956543 
	C191.480972,1045.010010 248.286285,1045.312744 305.086121,1044.892944 
	C353.661407,1044.533813 402.265594,1046.743042 450.814728,1043.074951 
	C477.294952,1041.074341 496.271515,1027.715698 509.604095,1005.616577 
	C520.341797,987.818420 518.963257,967.610718 519.810547,947.942078 
	C519.851013,947.003235 517.580750,945.964905 516.116882,944.097534 
	C516.216003,940.751770 516.315063,937.406067 517.158325,934.000977 
	C521.487244,932.728577 519.871033,929.103943 519.871704,926.434753 
	C519.941589,661.565613 519.936829,396.696442 519.936035,131.827286 
	C519.936035,130.494659 520.353699,128.946671 519.817444,127.881210 
	C519.061401,126.378929 517.595398,125.233940 516.179016,123.057014 
	C516.261047,119.383583 516.343079,115.710159 517.198792,112.020287 
	C520.591858,111.865715 520.063416,109.293785 519.948608,107.246864 
	C519.363770,96.818344 518.934265,86.370712 517.951050,75.977005 
	C515.535950,50.448288 501.050812,32.649841 479.884888,20.174595 
	C463.694244,10.631790 445.213379,10.843072 427.017120,11.005708 
	C423.657471,11.035736 424.055084,13.427569 423.087646,15.825823 
	C419.748322,15.702797 416.409027,15.579771 413.062592,14.704527 
	C412.915527,8.759452 408.389740,10.082909 405.005127,10.092266 
	C307.704773,10.361281 210.404343,10.641599 113.104790,11.103285 
	C103.169327,11.150429 93.143761,11.698352 83.325180,13.139380 
	C56.610847,17.060120 38.893162,33.117729 28.026775,56.956089 
	C20.522631,73.418457 22.275599,91.476517 21.215851,108.977974 
	C21.158049,109.932579 23.392288,111.025978 24.829622,112.941132 
	C24.821356,117.771339 24.805880,122.601555 24.805859,127.431763 
	C24.804691,394.826385 24.805927,662.221008 24.797684,929.615601 
	C24.797495,935.771912 24.691772,941.928162 24.152092,948.742249 
	C24.474216,954.170166 24.796341,959.598022 25.388832,965.738770 
	C25.452471,967.525879 25.516108,969.312988 25.153954,971.636414 
	C25.465273,973.097229 25.776594,974.558044 26.352491,976.578735 
	C26.362551,977.190063 26.372610,977.801453 26.085711,979.153992 
	C26.384190,980.101379 26.682671,981.048767 27.268568,982.545837 
	C27.315159,983.157410 27.361752,983.769043 27.121691,985.209778 
	C28.335035,989.624207 28.859732,994.399658 30.936495,998.361511 
	C33.516296,1003.282959 37.379631,1007.531616 41.057297,1012.292358 
	C41.057297,1012.292358 41.155876,1012.711060 41.011768,1013.455139 
	C41.217781,1015.306702 40.727230,1017.776367 41.737137,1018.914673 
	C52.354538,1030.881226 64.998589,1039.715820 81.250542,1041.874023 
	C91.718292,1043.263916 102.299011,1043.782349 112.801025,1044.944946 
	C117.331551,1045.446411 118.222061,1043.114136 118.950386,1039.256470 
	C121.600792,1039.342285 124.251198,1039.428101 126.969696,1039.994141 
	C127.319389,1040.318970 127.669075,1040.643921 128.045883,1041.772095 
z"/>
<path fill="#BBB7B1" opacity="1.000000" stroke="none" 
	d="
M523.169983,442.870880 
	C522.657776,441.571960 522.084106,440.151520 522.082275,438.730377 
	C522.033752,400.166199 522.039673,361.601990 522.063843,323.037750 
	C522.064575,321.898071 522.360657,320.758545 522.785156,319.297668 
	C526.525574,318.674500 528.240234,319.931244 527.906250,323.743317 
	C527.606079,327.169159 527.798889,330.638214 527.335815,334.506958 
	C525.968323,333.175690 525.039246,331.425598 524.351807,330.130646 
	C524.351807,363.180511 524.351807,396.759308 524.351807,430.338104 
	C525.004883,418.863617 524.901062,407.388153 525.120544,395.918884 
	C525.152283,394.262207 526.737366,392.635284 527.603638,390.994629 
	C527.656372,407.024017 527.709045,423.053436 527.345215,439.549774 
	C525.956787,440.691803 524.984863,441.366852 524.012939,442.041931 
	C523.830872,442.305176 523.618225,442.540894 523.169983,442.870880 
z"/>
<path fill="#BFBBB5" opacity="1.000000" stroke="none" 
	d="
M527.684937,390.532471 
	C526.737366,392.635284 525.152283,394.262207 525.120544,395.918884 
	C524.901062,407.388153 525.004883,418.863617 524.351807,430.338104 
	C524.351807,396.759308 524.351807,363.180511 524.351807,330.130646 
	C525.039246,331.425598 525.968323,333.175690 527.249390,334.965576 
	C527.656311,353.360382 527.711304,371.715332 527.684937,390.532471 
z"/>
<path fill="#BFBBB5" opacity="1.000000" stroke="none" 
	d="
M434.278809,1047.373047 
	C435.750732,1046.972778 437.595184,1046.724731 439.708130,1046.694824 
	C438.201508,1047.116943 436.426422,1047.321167 434.278809,1047.373047 
z"/>
<path fill="#BFBBB5" opacity="1.000000" stroke="none" 
	d="
M524.379150,442.101807 
	C524.984863,441.366852 525.956787,440.691803 527.267212,440.012329 
	C526.652283,440.725861 525.698853,441.443787 524.379150,442.101807 
z"/>
<path fill="#BFBBB5" opacity="1.000000" stroke="none" 
	d="
M463.165710,1044.392090 
	C463.471405,1044.029297 464.049408,1043.756714 464.787231,1043.640625 
	C464.444061,1044.025513 463.941010,1044.253906 463.165710,1044.392090 
z"/>
<path fill="#BFBBB5" opacity="1.000000" stroke="none" 
	d="
M458.160278,1045.336670 
	C458.485565,1044.995239 459.075409,1044.764038 459.815399,1044.697998 
	C459.451965,1045.057617 458.938385,1045.252075 458.160278,1045.336670 
z"/>
<path fill="#BFBBB5" opacity="1.000000" stroke="none" 
	d="
M451.160187,1046.225952 
	C451.526245,1045.907227 452.076111,1045.721436 452.799561,1045.714111 
	C452.430084,1046.047974 451.887024,1046.203491 451.160187,1046.225952 
z"/>
<path fill="#BFBBB5" opacity="1.000000" stroke="none" 
	d="
M18.127625,466.069336 
	C18.412436,470.707520 18.944813,475.345642 18.946157,479.983887 
	C18.989305,628.962708 18.983080,777.941589 18.961544,926.920410 
	C18.961235,929.064209 18.673428,931.207947 18.261290,933.676025 
	C17.832354,931.860474 17.513084,929.720764 17.512733,927.580994 
	C17.488089,777.295532 17.480547,627.010071 17.538282,476.724640 
	C17.539654,473.152222 17.505587,469.882416 14.418205,467.384521 
	C15.890239,466.681366 17.008932,466.375336 18.127625,466.069336 
z"/>
<path fill="#BFBBB5" opacity="1.000000" stroke="none" 
	d="
M17.796547,123.363159 
	C18.281120,124.719467 18.935783,126.456688 18.936804,128.194290 
	C18.987186,214.085175 18.985518,299.976074 18.951057,385.867004 
	C18.950413,387.473755 18.487499,389.080322 17.936699,390.893799 
	C17.584755,386.938080 17.683868,382.766937 17.441666,378.615723 
	C17.245441,375.252472 19.018827,371.235657 14.463330,369.020477 
	C13.825351,368.710266 13.950127,366.555176 13.948440,365.253784 
	C13.919512,342.941711 13.915835,320.629608 13.939502,298.317505 
	C13.942204,295.770477 13.176630,292.960785 16.621254,291.543274 
	C17.297585,291.264954 17.439888,289.148071 17.449194,287.876343 
	C17.516237,278.716248 17.608332,269.552094 17.360365,260.398224 
	C17.320787,258.937256 15.554397,257.557251 14.704032,256.072357 
	C14.113582,255.041351 13.724878,253.894791 13.618632,252.385803 
	C14.462563,251.634232 14.933898,251.296692 15.405231,250.959167 
	C14.743888,250.635025 14.082544,250.310883 13.421200,249.986755 
	C13.358590,247.947922 13.295981,245.909088 13.678953,243.398773 
	C14.559170,242.719208 15.352399,242.545181 15.375859,242.298080 
	C15.925559,236.508667 16.496704,230.715317 16.716688,224.909546 
	C16.739405,224.309952 14.578581,223.627625 13.430934,222.983688 
	C13.124334,220.702545 12.469801,218.636093 15.554373,217.176834 
	C16.783453,216.595398 17.402342,213.617996 17.410246,211.727600 
	C17.525236,184.229950 17.486061,156.731659 17.496880,129.233521 
	C17.497601,127.403740 17.604292,125.574005 17.796547,123.363159 
z"/>
<path fill="#B5B0AB" opacity="1.000000" stroke="none" 
	d="
M18.335081,465.710999 
	C17.008932,466.375336 15.890239,466.681366 14.423920,466.999146 
	C14.019582,443.270844 13.959367,419.530731 13.924881,395.790619 
	C13.923948,395.149078 14.201033,394.507141 14.969715,393.971008 
	C16.455805,394.719086 17.320648,395.361481 18.185497,396.003876 
	C18.432947,417.136719 18.692480,438.269440 18.908028,459.402618 
	C18.928244,461.384491 18.670973,463.369232 18.335081,465.710999 
z"/>
<path fill="#BDB9B4" opacity="1.000000" stroke="none" 
	d="
M13.327507,223.443604 
	C14.578581,223.627625 16.739405,224.309952 16.716688,224.909546 
	C16.496704,230.715317 15.925559,236.508667 15.375859,242.298080 
	C15.352399,242.545181 14.559170,242.719208 13.772458,242.970093 
	C13.354949,236.643127 13.289515,230.273331 13.327507,223.443604 
z"/>
<path fill="#BFBBB5" opacity="1.000000" stroke="none" 
	d="
M18.361660,395.770325 
	C17.320648,395.361481 16.455805,394.719086 15.302855,393.733704 
	C15.014749,393.390778 14.802786,393.162811 15.453920,393.076721 
	C16.479483,392.953003 16.853910,392.915405 17.228340,392.877808 
	C17.664837,393.764130 18.101332,394.650452 18.361660,395.770325 
z"/>
<path fill="#BFBBB5" opacity="1.000000" stroke="none" 
	d="
M18.910446,85.265549 
	C19.175571,86.219177 19.256033,87.415771 19.086529,88.829277 
	C18.799637,87.866966 18.762707,86.687729 18.910446,85.265549 
z"/>
<path fill="#BFBBB5" opacity="1.000000" stroke="none" 
	d="
M18.679741,966.234253 
	C19.051233,967.117432 19.274002,968.329529 19.290020,969.759949 
	C18.899183,968.839905 18.715099,967.701538 18.679741,966.234253 
z"/>
<path fill="#BDB9B4" opacity="1.000000" stroke="none" 
	d="
M13.336048,250.321198 
	C14.082544,250.310883 14.743888,250.635025 15.405231,250.959167 
	C14.933898,251.296692 14.462563,251.634232 13.709549,251.992599 
	C13.368880,251.560837 13.309889,251.108231 13.336048,250.321198 
z"/>
<path fill="#BFBBB5" opacity="1.000000" stroke="none" 
	d="
M19.612411,977.204590 
	C19.995829,977.794006 20.250046,978.689148 20.313313,979.775757 
	C19.909311,979.148315 19.696262,978.329285 19.612411,977.204590 
z"/>
<path fill="#BFBBB5" opacity="1.000000" stroke="none" 
	d="
M19.920504,75.289558 
	C20.143763,75.961021 20.164938,76.892593 19.961853,77.962799 
	C19.731203,77.250847 19.724810,76.400253 19.920504,75.289558 
z"/>
<path fill="#BFBBB5" opacity="1.000000" stroke="none" 
	d="
M20.910770,69.238098 
	C21.110212,69.648285 21.116549,70.272827 20.923176,71.001572 
	C20.721535,70.554665 20.719597,70.003555 20.910770,69.238098 
z"/>
<path fill="#BFBBB5" opacity="1.000000" stroke="none" 
	d="
M21.981482,64.250488 
	C22.153749,64.665161 22.125982,65.287086 21.897730,66.007919 
	C21.725309,65.557129 21.753378,65.007439 21.981482,64.250488 
z"/>
<path fill="#BFBBB5" opacity="1.000000" stroke="none" 
	d="
M21.604534,989.165588 
	C21.963823,989.475159 22.229811,990.056580 22.336605,990.795776 
	C21.955353,990.448181 21.733294,989.942810 21.604534,989.165588 
z"/>
<path fill="#BFBBB5" opacity="1.000000" stroke="none" 
	d="
M20.613441,984.162354 
	C20.962933,984.488586 21.201309,985.081543 21.270006,985.824707 
	C20.900993,985.459656 20.701660,984.944336 20.613441,984.162354 
z"/>
<path fill="#BDB9B4" opacity="1.000000" stroke="none" 
	d="
M17.162958,392.659790 
	C16.853910,392.915405 16.479483,392.953003 15.535956,392.944458 
	C15.449917,392.581329 15.932975,392.264374 16.707355,391.972412 
	C16.998678,391.997437 17.097578,392.441772 17.162958,392.659790 
z"/>
<path fill="#BFBBB5" opacity="1.000000" stroke="none" 
	d="
M49.193199,1031.274170 
	C54.673668,1033.960938 60.255985,1036.969482 65.960686,1040.279419 
	C60.487061,1037.585815 54.891052,1034.591064 49.193199,1031.274170 
z"/>
<path fill="#BFBBB5" opacity="1.000000" stroke="none" 
	d="
M100.397926,1047.005127 
	C104.587250,1046.794189 109.123375,1046.785278 113.874695,1047.069580 
	C109.641502,1047.310791 105.193115,1047.259033 100.397926,1047.005127 
z"/>
<path fill="#BFBBB5" opacity="1.000000" stroke="none" 
	d="
M68.663269,1041.652832 
	C71.865273,1042.221558 75.313484,1043.054810 78.925079,1044.183838 
	C75.695465,1043.625488 72.302467,1042.771484 68.663269,1041.652832 
z"/>
<path fill="#BFBBB5" opacity="1.000000" stroke="none" 
	d="
M88.349625,1046.031250 
	C89.619095,1045.820557 91.191521,1045.821655 92.928696,1046.083618 
	C91.613167,1046.310791 90.132881,1046.276978 88.349625,1046.031250 
z"/>
<path fill="#BFBBB5" opacity="1.000000" stroke="none" 
	d="
M45.030575,1027.338135 
	C45.965088,1027.779541 46.940357,1028.554810 47.958305,1029.664795 
	C47.024429,1029.223755 46.047882,1028.447998 45.030575,1027.338135 
z"/>
<path fill="#BFBBB5" opacity="1.000000" stroke="none" 
	d="
M81.300041,1045.014893 
	C81.983223,1044.815308 82.915649,1044.832886 83.974014,1045.083862 
	C83.249725,1045.288818 82.399498,1045.260376 81.300041,1045.014893 
z"/>
<path fill="#465745" opacity="1.000000" stroke="none" 
	d="
M105.822083,6.909136 
	C104.599236,7.366446 103.143738,7.565812 101.325729,7.656668 
	C102.505287,7.249169 104.047363,6.950181 105.822083,6.909136 
z"/>
<path fill="#030303" opacity="1.000000" stroke="none" 
	d="
M413.069702,15.456745 
	C416.409027,15.579771 419.748322,15.702797 423.951050,15.838385 
	C426.899017,15.815740 428.983582,15.780534 431.420349,15.907518 
	C435.194397,16.084072 438.616150,16.098436 442.411346,16.249996 
	C444.888367,16.475346 446.991974,16.563498 449.356018,16.838112 
	C451.091644,17.058462 452.566895,17.092348 454.350403,17.281437 
	C455.791382,17.550951 456.924133,17.665264 458.204346,17.942265 
	C458.907471,18.089842 459.463165,18.074734 460.322144,18.231348 
	C462.202026,18.716137 463.778564,19.029207 465.553467,19.571823 
	C466.524780,19.901308 467.297791,20.001247 468.367615,20.320312 
	C469.610870,20.769194 470.557312,20.998949 471.661621,21.484291 
	C472.569000,21.953684 473.318481,22.167492 474.306488,22.629019 
	C475.596771,23.297815 476.648529,23.718897 477.831146,24.398918 
	C478.661407,24.941853 479.360870,25.225842 480.288696,25.777252 
	C482.649597,27.375784 484.782043,28.706892 487.008789,30.310850 
	C487.749298,30.954483 488.395569,31.325266 489.238861,31.978535 
	C495.494415,39.484932 501.552979,46.708843 507.605560,54.254414 
	C508.331390,55.868515 509.063232,57.160954 509.812775,58.798985 
	C510.165039,59.739902 510.499542,60.335236 510.779846,61.260677 
	C511.271606,63.023933 511.817535,64.457077 512.349731,66.253128 
	C512.528687,67.055885 512.721375,67.495743 512.822754,68.226212 
	C513.008179,69.250648 513.285034,69.984467 513.517944,71.010864 
	C513.636841,71.865295 513.799683,72.427147 513.850769,73.216309 
	C513.985718,74.222221 514.232361,75.000809 514.416992,76.101791 
	C514.535645,77.272743 514.716248,78.121292 514.769897,79.264603 
	C514.885620,81.000038 515.128296,82.440704 515.284912,84.275040 
	C515.419739,86.765381 515.640686,88.862068 515.712158,91.336304 
	C515.798706,96.780907 516.034729,101.847954 516.167480,107.336395 
	C516.184570,109.184097 516.304871,110.610413 516.425171,112.036728 
	C516.343079,115.710159 516.261047,119.383583 516.144165,123.944687 
	C516.083313,125.997986 516.034546,127.163620 516.034546,128.329254 
	C516.031128,395.257904 516.030518,662.186584 516.046997,929.115234 
	C516.047119,930.763611 516.286560,932.411926 516.414185,934.060303 
	C516.315063,937.406067 516.216003,940.751770 516.109497,944.906616 
	C516.161865,946.501587 516.221680,947.287537 516.115662,948.436646 
	C515.924805,953.880310 515.899841,958.960632 515.738525,964.411499 
	C515.528198,966.889038 515.454224,968.996094 515.184814,971.355957 
	C514.961365,973.082642 514.933350,974.556580 514.768677,976.331543 
	C514.585571,977.504211 514.538940,978.375793 514.289307,979.406616 
	C514.045410,980.381165 514.004517,981.196289 513.826660,982.275513 
	C513.645996,983.126160 513.602234,983.712646 513.335205,984.508301 
	C513.047668,985.503906 512.983459,986.290466 512.734131,987.384033 
	C512.488831,988.158936 512.428650,988.626831 512.137573,989.335938 
	C511.551270,991.078491 511.195801,992.579773 510.614197,994.344604 
	C510.190979,995.262756 509.993927,995.917480 509.529480,996.756348 
	C508.717010,998.319458 508.171936,999.698425 507.355957,1001.318970 
	C505.377716,1004.346619 503.670410,1007.132812 501.688538,1010.010620 
	C501.037994,1010.749451 500.661957,1011.396790 500.009186,1012.237305 
	C498.153412,1014.283386 496.574371,1016.136292 494.696930,1018.049866 
	C493.914948,1018.732666 493.431366,1019.354858 492.647461,1020.094360 
	C491.246552,1021.237122 490.145935,1022.262512 488.742981,1023.353760 
	C487.532288,1024.234497 486.623932,1025.049316 485.501282,1025.898193 
	C485.286957,1025.932007 485.043213,1026.291016 484.748260,1026.315918 
	C483.893433,1026.858276 483.333557,1027.375488 482.548523,1027.924438 
	C482.323395,1027.956055 482.045807,1028.316040 481.720398,1028.325317 
	C480.169983,1029.178467 478.945038,1030.022339 477.379883,1030.915283 
	C476.050842,1031.524048 475.061981,1032.083618 473.775055,1032.598877 
	C472.809570,1032.951660 472.142151,1033.348511 471.142853,1033.748779 
	C470.231659,1034.050415 469.652344,1034.348755 468.720825,1034.590088 
	C466.602020,1035.097046 464.835449,1035.660889 462.679321,1036.198242 
	C461.551147,1036.408203 460.812469,1036.644775 459.753174,1036.784180 
	C458.388458,1036.984131 457.344330,1037.281372 456.089478,1037.502930 
	C455.561737,1037.424072 455.291565,1037.534790 454.744080,1037.644531 
	C452.659149,1037.829468 450.898407,1038.129395 448.787415,1038.349976 
	C447.981018,1038.392822 447.524811,1038.514893 446.619812,1038.491943 
	C441.148254,1038.674438 436.125519,1039.002075 430.638062,1039.225830 
	C339.289612,1039.168701 248.405838,1039.213257 157.522095,1039.274292 
	C155.369110,1039.275757 153.216278,1039.463257 150.617889,1039.395508 
	C142.415482,1039.322632 134.658539,1039.418213 126.901604,1039.513916 
	C124.251198,1039.428101 121.600792,1039.342285 118.093475,1039.191406 
	C114.580276,1039.052124 111.922096,1038.872314 109.268021,1038.920288 
	C83.013214,1039.394653 59.108837,1033.796509 41.155876,1012.711060 
	C41.155876,1012.711060 41.057297,1012.292358 40.826233,1011.849243 
	C34.195660,1003.375427 30.324751,994.110901 27.408346,984.380615 
	C27.361752,983.769043 27.315159,983.157410 27.268969,982.035217 
	C26.973799,980.487305 26.678230,979.450073 26.382664,978.412781 
	C26.372610,977.801453 26.362551,977.190063 26.371964,976.012634 
	C26.120871,973.997742 25.850302,972.548889 25.579741,971.100098 
	C25.516108,969.312988 25.452471,967.525879 25.434223,965.018311 
	C25.198166,958.893372 24.916721,953.488953 24.635277,948.084473 
	C24.691772,941.928162 24.797495,935.771912 24.797684,929.615601 
	C24.805927,662.221008 24.804691,394.826385 24.805859,127.431763 
	C24.805880,122.601555 24.821356,117.771339 24.859306,112.093590 
	C24.831160,109.802116 24.773331,108.358177 24.874416,106.548729 
	C25.092701,100.762245 25.152067,95.341286 25.363201,89.571350 
	C25.564106,87.447128 25.613245,85.671890 25.843121,83.632935 
	C26.074131,81.891205 26.124401,80.413185 26.318523,78.686699 
	C26.440500,77.880112 26.418625,77.321999 26.602718,76.553192 
	C26.895601,75.219818 26.982515,74.097122 27.222879,72.727356 
	C27.387976,71.913574 27.399622,71.346848 27.653854,70.494583 
	C29.742786,64.792274 31.589130,59.375507 33.710289,53.716415 
	C39.982162,46.221378 45.979225,38.968662 52.260864,31.675785 
	C53.070805,31.107124 53.596172,30.578621 54.447586,29.965246 
	C56.836773,28.429031 58.899918,26.977692 61.279552,25.487110 
	C62.846584,24.679520 64.097122,23.911169 65.659058,23.130318 
	C66.299942,22.880508 66.629433,22.643196 67.261971,22.416574 
	C68.242783,22.029942 68.920547,21.632622 69.961113,21.239046 
	C71.202347,20.868280 72.080780,20.493771 73.252625,20.193424 
	C74.267754,19.956963 74.989464,19.646341 76.099892,19.356359 
	C77.979057,18.948631 79.469521,18.520266 81.209831,18.185490 
	C81.951660,18.121080 82.443634,17.963078 83.274780,17.868721 
	C84.724838,17.675291 85.835716,17.418215 87.245338,17.278894 
	C88.992981,17.159294 90.441879,16.921940 92.284050,16.771481 
	C94.769150,16.619419 96.860985,16.380463 99.322906,16.273098 
	C103.103004,16.195011 106.513023,15.985332 110.386520,15.878648 
	C209.777847,15.940570 308.705688,15.901626 407.633545,15.841790 
	C409.445648,15.840693 411.257660,15.590638 413.069702,15.456745 
M498.845978,880.500061 
	C498.845978,625.531616 498.853424,370.563110 498.816589,115.594658 
	C498.815216,106.101204 498.666321,96.590767 498.098206,87.117516 
	C496.202972,55.514465 476.583466,35.413326 444.988647,33.976185 
	C421.535004,32.909351 398.013550,33.304241 374.521698,33.124706 
	C367.283325,33.069389 365.535187,34.859768 364.920959,42.207161 
	C364.657745,45.355995 364.661194,48.580490 363.940460,51.627987 
	C361.499146,61.950462 355.058807,68.639236 344.684204,71.034714 
	C340.999725,71.885460 337.084473,71.995972 333.273895,72.001747 
	C291.279175,72.065338 249.284348,72.044044 207.289551,72.034416 
	C205.124069,72.033920 202.952667,72.014397 200.794098,71.861572 
	C186.819397,70.872253 177.064545,61.102249 176.005646,47.135201 
	C175.792206,44.319950 175.520432,41.502579 175.110825,38.710350 
	C174.565567,34.993584 172.180496,33.133129 168.541397,33.178299 
	C142.389862,33.502911 116.165581,32.809776 90.109016,34.574753 
	C64.193527,36.330170 45.533340,56.378143 42.924694,82.202492 
	C42.356461,87.827728 42.143429,93.511383 42.142712,99.168182 
	C42.106609,384.966339 42.106346,670.764526 42.147285,956.562683 
	C42.148121,962.384705 42.381325,968.239380 43.015862,974.022888 
	C45.610699,997.673340 62.631516,1016.251160 85.971436,1020.460144 
	C92.805222,1021.692444 99.899529,1021.864136 106.874931,1021.869568 
	C215.861435,1021.953735 324.848022,1021.933044 433.834595,1021.923096 
	C437.499634,1021.922791 441.264038,1022.293030 444.809479,1021.603271 
	C452.755402,1020.057312 461.256622,1019.301025 468.344513,1015.811646 
	C486.807434,1006.722473 497.264160,991.187744 497.859589,970.464050 
	C498.711182,940.824402 498.565674,911.156128 498.845978,880.500061 
M293.584473,18.002293 
	C288.466034,18.332319 283.344116,18.985479 278.229828,18.930632 
	C263.970154,18.777708 249.714325,18.228954 235.455078,18.139059 
	C233.800476,18.128628 232.133881,20.019794 230.472855,21.029343 
	C232.155243,22.017506 233.827103,23.822454 235.521942,23.844288 
	C241.134705,23.916586 246.753052,23.138975 252.374176,23.065790 
	C263.671875,22.918699 274.974365,22.908401 286.271820,23.063150 
	C293.055908,23.156076 299.834412,23.847347 306.615173,23.843651 
	C308.027466,23.842880 309.438721,21.966312 310.850464,20.954199 
	C309.408691,19.970659 308.037720,18.294645 306.511353,18.138618 
	C302.564453,17.735163 298.548981,18.002342 293.584473,18.002293 
M202.508026,50.959038 
	C206.145050,50.440422 208.346527,48.412563 207.862488,44.680412 
	C207.384827,40.997398 204.226501,40.466251 201.441559,41.184475 
	C199.768524,41.615952 197.057663,44.196026 197.301483,44.791275 
	C198.230087,47.058323 200.170441,48.910946 202.508026,50.959038 
z"/>
<path fill="#BEB8B3" opacity="1.000000" stroke="none" 
	d="
M516.786255,934.030640 
	C516.286560,932.411926 516.047119,930.763611 516.046997,929.115234 
	C516.030518,662.186584 516.031128,395.257904 516.034546,128.329254 
	C516.034546,127.163620 516.083313,125.997986 516.271118,124.384277 
	C517.595398,125.233940 519.061401,126.378929 519.817444,127.881210 
	C520.353699,128.946671 519.936035,130.494659 519.936035,131.827286 
	C519.936829,396.696442 519.941589,661.565613 519.871704,926.434753 
	C519.871033,929.103943 521.487244,932.728577 516.786255,934.030640 
z"/>
<path fill="#C3BCB7" opacity="1.000000" stroke="none" 
	d="
M51.976288,31.715944 
	C45.979225,38.968662 39.982162,46.221378 33.416946,53.844719 
	C31.036283,59.736938 29.223778,65.258537 27.411270,70.780128 
	C27.399622,71.346848 27.387976,71.913574 26.954060,73.030823 
	C26.486774,74.642197 26.441761,75.703033 26.396748,76.763878 
	C26.418625,77.321999 26.440500,77.880112 26.060684,78.913834 
	C25.660124,80.891830 25.661255,82.394241 25.662384,83.896645 
	C25.613245,85.671890 25.564106,87.447128 25.068405,89.877258 
	C24.653061,95.992844 24.684280,101.453545 24.715500,106.914246 
	C24.773331,108.358177 24.831160,109.802116 24.724302,111.650406 
	C23.392288,111.025978 21.158049,109.932579 21.215851,108.977974 
	C22.275599,91.476517 20.522631,73.418457 28.026775,56.956089 
	C38.893162,33.117729 56.610847,17.060120 83.325180,13.139380 
	C93.143761,11.698352 103.169327,11.150429 113.104790,11.103285 
	C210.404343,10.641599 307.704773,10.361281 405.005127,10.092266 
	C408.389740,10.082909 412.915527,8.759452 413.066162,15.080636 
	C411.257660,15.590638 409.445648,15.840693 407.633545,15.841790 
	C308.705688,15.901626 209.777847,15.940570 110.058212,15.657587 
	C105.828552,15.602856 102.390686,15.872180 98.952820,16.141506 
	C96.860985,16.380463 94.769150,16.619419 92.004036,16.578430 
	C89.869370,16.586037 88.407990,16.873589 86.946602,17.161139 
	C85.835716,17.418215 84.724838,17.675291 83.137932,17.705303 
	C82.094597,17.682793 81.527290,17.887346 80.959976,18.091900 
	C79.469521,18.520266 77.979057,18.948631 75.792450,19.274973 
	C74.383934,19.488386 73.671570,19.803825 72.959213,20.119263 
	C72.080780,20.493771 71.202347,20.868280 69.641350,21.193367 
	C68.292168,21.564590 67.625542,21.985239 66.958923,22.405888 
	C66.629433,22.643196 66.299942,22.880508 65.314163,23.110168 
	C63.426273,23.910463 62.194668,24.718405 60.963058,25.526348 
	C58.899918,26.977692 56.836773,28.429031 54.144524,29.980427 
	C53.002377,30.625637 52.489330,31.170790 51.976288,31.715944 
z"/>
<path fill="#CEC7C1" opacity="1.000000" stroke="none" 
	d="
M509.796875,996.572144 
	C509.993927,995.917480 510.190979,995.262756 510.860229,994.201172 
	C511.677765,992.227783 512.023132,990.661316 512.368530,989.094788 
	C512.428650,988.626831 512.488831,988.158936 512.977173,987.185547 
	C513.456360,985.886414 513.507385,985.092834 513.558472,984.299194 
	C513.602234,983.712646 513.645996,983.126160 514.078186,981.990845 
	C514.475220,980.710510 514.483765,979.978882 514.492310,979.247314 
	C514.538940,978.375793 514.585571,977.504211 515.022827,976.105713 
	C515.402466,974.086914 515.391296,972.595032 515.380127,971.103149 
	C515.454224,968.996094 515.528198,966.889038 516.024292,964.104126 
	C516.391479,958.308716 516.336487,953.191040 516.281494,948.073425 
	C516.221680,947.287537 516.161865,946.501587 516.244263,945.344299 
	C517.580750,945.964905 519.851013,947.003235 519.810547,947.942078 
	C518.963257,967.610718 520.341797,987.818420 509.604095,1005.616577 
	C496.271515,1027.715698 477.294952,1041.074341 450.814728,1043.074951 
	C402.265594,1046.743042 353.661407,1044.533813 305.086121,1044.892944 
	C248.286285,1045.312744 191.480972,1045.010010 134.678101,1044.956543 
	C132.109436,1044.954102 128.630295,1046.189575 128.498840,1041.368530 
	C134.695129,1040.963501 140.441391,1041.063354 146.179916,1040.896851 
	C147.819244,1040.849365 149.436172,1040.029541 151.063370,1039.563965 
	C153.216278,1039.463257 155.369110,1039.275757 157.522095,1039.274292 
	C248.405838,1039.213257 339.289612,1039.168701 430.974152,1039.449341 
	C436.872833,1039.396606 441.970703,1039.016846 447.068604,1038.636963 
	C447.524811,1038.514893 447.981018,1038.392822 449.086975,1038.541138 
	C451.513885,1038.460938 453.291046,1038.110229 455.068237,1037.759644 
	C455.291565,1037.534790 455.561737,1037.424072 456.424011,1037.630127 
	C458.004150,1037.515625 459.039001,1037.198486 460.073853,1036.881348 
	C460.812469,1036.644775 461.551147,1036.408203 462.919128,1036.401611 
	C465.389984,1035.970093 467.231506,1035.308594 469.073059,1034.647095 
	C469.652344,1034.348755 470.231659,1034.050415 471.452820,1033.816284 
	C472.754150,1033.468018 473.413635,1033.055542 474.073120,1032.643066 
	C475.061981,1032.083618 476.050842,1031.524048 477.727539,1030.940186 
	C479.625549,1030.049316 480.835663,1029.182617 482.045776,1028.316040 
	C482.045807,1028.316040 482.323395,1027.956055 482.862183,1027.939697 
	C483.948395,1027.379150 484.495789,1026.835083 485.043213,1026.291016 
	C485.043213,1026.291016 485.286957,1025.932007 485.840759,1025.918335 
	C487.278168,1025.032471 488.161804,1024.160156 489.045380,1023.287903 
	C490.145935,1022.262512 491.246552,1021.237122 492.969147,1020.065002 
	C494.059204,1019.275208 494.527252,1018.632141 494.995300,1017.989136 
	C496.574371,1016.136292 498.153412,1014.283386 500.307495,1012.174683 
	C501.242737,1011.252258 501.602936,1010.585632 501.963135,1009.919006 
	C503.670410,1007.132812 505.377716,1004.346619 507.653931,1001.186584 
	C508.747528,999.399170 509.272217,997.985657 509.796875,996.572144 
z"/>
<path fill="#CBC4BF" opacity="1.000000" stroke="none" 
	d="
M465.355133,19.342278 
	C463.778564,19.029207 462.202026,18.716137 460.190216,18.020084 
	C459.188934,17.684593 458.622894,17.732086 458.056854,17.779579 
	C456.924133,17.665264 455.791382,17.550951 454.125488,17.023392 
	C452.093414,16.623978 450.594513,16.637812 449.095581,16.651648 
	C446.991974,16.563498 444.888367,16.475346 442.113556,15.971955 
	C437.984283,15.619587 434.526184,15.682457 431.068115,15.745327 
	C428.983582,15.780534 426.899017,15.815740 424.389343,15.708282 
	C424.055084,13.427569 423.657471,11.035736 427.017120,11.005708 
	C445.213379,10.843072 463.694244,10.631790 479.884888,20.174595 
	C501.050812,32.649841 515.535950,50.448288 517.951050,75.977005 
	C518.934265,86.370712 519.363770,96.818344 519.948608,107.246864 
	C520.063416,109.293785 520.591858,111.865715 516.812012,112.028503 
	C516.304871,110.610413 516.184570,109.184097 516.395569,107.001572 
	C516.438416,101.149834 516.150024,96.054291 515.861633,90.958755 
	C515.640686,88.862068 515.419739,86.765381 515.480957,84.000259 
	C515.474426,81.877831 515.185669,80.423836 514.896912,78.969833 
	C514.716248,78.121292 514.535645,77.272743 514.543274,75.735657 
	C514.475220,74.361076 514.218872,73.675034 513.962524,72.988991 
	C513.799683,72.427147 513.636841,71.865295 513.632568,70.711960 
	C513.498840,69.392181 513.206482,68.663887 512.914124,67.935593 
	C512.721375,67.495743 512.528687,67.055885 512.510010,66.022041 
	C512.067322,63.928894 511.450684,62.429733 510.834045,60.930569 
	C510.499542,60.335236 510.165039,59.739902 509.859863,58.453453 
	C509.130005,56.485806 508.370758,55.209282 507.611542,53.932755 
	C501.552979,46.708843 495.494415,39.484932 489.171326,31.683807 
	C488.242676,30.750397 487.578613,30.394199 486.914520,30.038002 
	C484.782043,28.706892 482.649597,27.375784 480.182678,25.491161 
	C479.132263,24.671757 478.416290,24.405869 477.700317,24.139978 
	C476.648529,23.718897 475.596771,23.297815 474.166290,22.350685 
	C473.026306,21.625990 472.265045,21.427347 471.503754,21.228704 
	C470.557312,20.998949 469.610870,20.769194 468.182556,20.072601 
	C466.918823,19.517937 466.136993,19.430107 465.355133,19.342278 
z"/>
<path fill="#B5B0AB" opacity="1.000000" stroke="none" 
	d="
M41.083824,1013.083130 
	C59.108837,1033.796509 83.013214,1039.394653 109.268021,1038.920288 
	C111.922096,1038.872314 114.580276,1039.052124 117.662338,1039.294189 
	C118.222061,1043.114136 117.331551,1045.446411 112.801025,1044.944946 
	C102.299011,1043.782349 91.718292,1043.263916 81.250542,1041.874023 
	C64.998589,1039.715820 52.354538,1030.881226 41.737137,1018.914673 
	C40.727230,1017.776367 41.217781,1015.306702 41.083824,1013.083130 
z"/>
<path fill="#B5B0AB" opacity="1.000000" stroke="none" 
	d="
M27.265018,984.795166 
	C30.324751,994.110901 34.195660,1003.375427 40.641884,1011.738464 
	C37.379631,1007.531616 33.516296,1003.282959 30.936495,998.361511 
	C28.859732,994.399658 28.335035,989.624207 27.265018,984.795166 
z"/>
<path fill="#B5B0AB" opacity="1.000000" stroke="none" 
	d="
M150.617889,1039.395508 
	C149.436172,1040.029541 147.819244,1040.849365 146.179916,1040.896851 
	C140.441391,1041.063354 134.695129,1040.963501 128.485291,1040.966797 
	C127.669075,1040.643921 127.319389,1040.318970 126.935654,1039.754028 
	C134.658539,1039.418213 142.415482,1039.322632 150.617889,1039.395508 
z"/>
<path fill="#B5B0AB" opacity="1.000000" stroke="none" 
	d="
M24.393684,948.413330 
	C24.916721,953.488953 25.198166,958.893372 25.299038,964.661865 
	C24.796341,959.598022 24.474216,954.170166 24.393684,948.413330 
z"/>
<path fill="#B5B0AB" opacity="1.000000" stroke="none" 
	d="
M25.366844,971.368286 
	C25.850302,972.548889 26.120871,973.997742 26.239676,975.732666 
	C25.776594,974.558044 25.465273,973.097229 25.366844,971.368286 
z"/>
<path fill="#B5B0AB" opacity="1.000000" stroke="none" 
	d="
M26.234184,978.783386 
	C26.678230,979.450073 26.973799,980.487305 27.125259,981.760376 
	C26.682671,981.048767 26.384190,980.101379 26.234184,978.783386 
z"/>
<path fill="#BED9B2" opacity="1.000000" stroke="none" 
	d="
M498.845978,881.000122 
	C498.565674,911.156128 498.711182,940.824402 497.859589,970.464050 
	C497.264160,991.187744 486.807434,1006.722473 468.344513,1015.811646 
	C461.256622,1019.301025 452.755402,1020.057312 444.809479,1021.603271 
	C441.264038,1022.293030 437.499634,1021.922791 433.834595,1021.923096 
	C324.848022,1021.933044 215.861435,1021.953735 106.874931,1021.869568 
	C99.899529,1021.864136 92.805222,1021.692444 85.971436,1020.460144 
	C62.631516,1016.251160 45.610699,997.673340 43.015862,974.022888 
	C42.381325,968.239380 42.148121,962.384705 42.147285,956.562683 
	C42.106346,670.764526 42.106609,384.966339 42.142712,99.168182 
	C42.143429,93.511383 42.356461,87.827728 42.924694,82.202492 
	C45.533340,56.378143 64.193527,36.330170 90.109016,34.574753 
	C116.165581,32.809776 142.389862,33.502911 168.541397,33.178299 
	C172.180496,33.133129 174.565567,34.993584 175.110825,38.710350 
	C175.520432,41.502579 175.792206,44.319950 176.005646,47.135201 
	C177.064545,61.102249 186.819397,70.872253 200.794098,71.861572 
	C202.952667,72.014397 205.124069,72.033920 207.289551,72.034416 
	C249.284348,72.044044 291.279175,72.065338 333.273895,72.001747 
	C337.084473,71.995972 340.999725,71.885460 344.684204,71.034714 
	C355.058807,68.639236 361.499146,61.950462 363.940460,51.627987 
	C364.661194,48.580490 364.657745,45.355995 364.920959,42.207161 
	C365.535187,34.859768 367.283325,33.069389 374.521698,33.124706 
	C398.013550,33.304241 421.535004,32.909351 444.988647,33.976185 
	C476.583466,35.413326 496.202972,55.514465 498.098206,87.117516 
	C498.666321,96.590767 498.815216,106.101204 498.816589,115.594658 
	C498.853424,370.563110 498.845978,625.531616 498.845978,881.000122 
M462.045013,52.904587 
	C454.315582,52.416973 446.586182,51.929363 438.856750,51.441750 
	C438.839142,51.962612 438.821533,52.483471 438.803894,53.004330 
	C443.597473,53.004330 448.395691,52.877514 453.182739,53.054020 
	C455.863525,53.152863 458.525787,53.754322 460.277435,54.490421 
	C453.232422,54.490421 446.187439,54.490421 439.329193,54.490421 
	C439.329193,57.369820 439.329193,60.088913 439.329193,63.004330 
	C443.464111,63.004330 447.267120,63.004330 451.070129,63.004330 
	C460.417480,63.004330 460.417480,63.004330 461.516144,54.008385 
	C461.516144,54.008385 461.978088,54.021423 461.949982,54.921791 
	C461.965118,55.753521 461.991852,56.585224 461.993561,57.416981 
	C462.006989,63.990448 462.005524,63.992199 455.515869,63.995140 
	C449.900238,63.997681 444.284607,63.995663 438.669006,63.995663 
	C438.662567,64.387321 438.656158,64.778976 438.649750,65.170639 
	C443.545105,65.170639 448.440430,65.170677 453.335785,65.170631 
	C463.583252,65.170540 463.588104,65.170227 462.955109,54.975559 
	C462.925598,54.500626 462.672363,54.039585 462.045013,52.904587 
M427.698456,56.556065 
	C428.745483,56.715279 429.792511,56.874489 431.654358,57.157608 
	C426.477478,50.347282 417.471405,50.500420 413.385468,57.703972 
	C415.675812,56.818935 416.956360,56.193245 418.307404,55.828598 
	C421.341705,55.009624 424.536194,53.400524 426.262421,57.192295 
	C420.347504,55.990227 419.219025,56.307388 417.212372,59.864876 
	C420.690247,59.864876 424.095703,59.864876 427.828552,59.864876 
	C427.528290,58.898998 427.219116,57.904419 427.698456,56.556065 
M287.500122,1005.405823 
	C255.199783,1005.405762 222.899445,1005.403931 190.599106,1005.411865 
	C189.104202,1005.412231 187.483932,1005.165039 186.155975,1005.660339 
	C185.177414,1006.025330 183.987289,1007.410339 183.981369,1008.347595 
	C183.975494,1009.276917 185.162643,1010.550781 186.143967,1011.051880 
	C187.078522,1011.529114 188.422958,1011.227600 189.587204,1011.227661 
	C243.365646,1011.231628 297.144104,1011.231262 350.922546,1011.229187 
	C352.087769,1011.229126 353.395447,1011.528442 354.379120,1011.098694 
	C355.412567,1010.647095 356.938110,1009.339844 356.815979,1008.666443 
	C356.606384,1007.510986 355.473267,1006.173767 354.373108,1005.628296 
	C353.290466,1005.091431 351.766998,1005.411133 350.436951,1005.410706 
	C329.791351,1005.403809 309.145752,1005.405884 287.500122,1005.405823 
M298.500122,476.249390 
	C288.083435,476.249390 277.666718,476.249390 267.171570,476.249390 
	C267.171570,478.581665 267.171570,480.207520 267.171570,482.023560 
	C299.105988,482.023560 330.851257,482.023560 362.660889,482.023560 
	C362.660889,480.104828 362.660889,478.369263 362.660889,476.248322 
	C341.400208,476.248322 320.450165,476.248322 298.500122,476.249390 
M241.499878,508.835144 
	C248.785690,508.835144 256.071503,508.835144 263.585419,508.835144 
	C263.585419,506.291718 263.585419,504.258087 263.585419,502.267883 
	C235.902008,502.267883 208.529816,502.267883 180.980209,502.267883 
	C181.085632,504.592468 181.173187,506.523376 181.278076,508.836121 
	C201.265823,508.836121 220.882858,508.836121 241.499878,508.835144 
M334.397766,505.269684 
	C334.489777,503.519592 334.581787,501.769470 334.673798,500.019379 
	C335.129059,497.017853 336.538452,493.318909 335.282593,491.198517 
	C332.578186,486.632416 327.516907,488.424225 323.106506,488.531464 
	C323.106506,494.243988 323.106506,499.624603 323.106506,504.891144 
	C328.589508,506.765320 325.740723,501.234070 327.748749,499.886566 
	C329.832306,501.774933 331.762085,503.523895 334.397766,505.269684 
M357.978027,499.416626 
	C356.788086,496.497040 355.715210,493.520782 354.344299,490.688782 
	C353.867371,489.703491 352.670227,488.473511 351.771423,488.448364 
	C350.824066,488.421844 349.371094,489.494629 348.951782,490.445557 
	C346.895569,495.108368 345.110138,499.890533 343.229065,504.630554 
	C343.316437,505.123505 343.403809,505.616455 343.491180,506.109436 
	C348.906921,501.824554 354.313232,501.799316 359.709961,506.121887 
	C359.789642,505.641235 359.869324,505.160614 359.949036,504.679962 
	C359.359131,503.169281 358.769226,501.658569 357.978027,499.416626 
M304.725189,489.255310 
	C302.638611,494.399567 300.552063,499.543854 298.465485,504.688110 
	C298.644745,505.202728 298.823975,505.717316 299.003235,506.231934 
	C304.203552,500.936523 309.544586,502.326355 315.003845,505.411163 
	C313.355194,499.883270 311.790039,495.198273 309.646973,490.794556 
	C309.084717,489.639191 306.730499,489.355865 304.725189,489.255310 
M233.286774,493.032898 
	C230.975327,492.316559 228.663895,491.600220 226.352448,490.883881 
	C226.116837,491.288849 225.881226,491.693817 225.645615,492.098785 
	C226.541794,493.180206 227.292511,494.984680 228.362930,495.200012 
	C230.993073,495.729065 233.871262,495.979004 236.441193,495.406097 
	C237.541687,495.160736 239.181061,491.992523 238.730438,491.195007 
	C237.654434,489.290741 235.565948,487.893829 233.721558,486.511963 
	C232.559753,485.641541 231.100403,485.168213 229.774536,484.516724 
	C230.001160,483.877991 230.227768,483.239258 230.454391,482.600525 
	C233.003494,483.359711 235.552597,484.118896 238.452576,484.982605 
	C238.184814,480.166168 235.001190,478.915161 231.939667,479.326721 
	C229.823868,479.611115 226.903198,481.691833 226.282883,483.600525 
	C225.191177,486.959686 228.238998,488.331482 231.160950,489.131622 
	C232.260361,489.432709 233.441681,489.817688 234.274124,490.528992 
	C234.625183,490.829041 234.171021,492.071381 233.286774,493.032898 
M206.654800,487.039856 
	C205.524826,489.892456 204.394836,492.745026 203.264862,495.597626 
	C203.398773,496.258911 203.532700,496.920166 203.666611,497.581451 
	C208.791199,491.521729 213.963882,492.029938 219.331253,496.263458 
	C218.374588,492.414459 217.445724,489.217224 215.901230,486.351776 
	C214.634155,484.000977 215.351715,479.287506 211.211563,480.079590 
	C209.442963,480.417999 208.320862,484.135620 206.654800,487.039856 
M274.899536,496.007751 
	C273.868256,495.109680 272.836975,494.211609 271.805664,493.313538 
	C272.098816,492.959015 272.391968,492.604492 272.685120,492.249939 
	C274.751862,492.072510 276.818604,491.895081 280.160583,491.608185 
	C276.546173,486.092621 272.214783,489.136047 268.165680,488.170898 
	C268.165680,493.592865 268.009460,498.352142 268.299744,503.084045 
	C268.356628,504.011139 270.142242,504.832153 271.755951,506.252625 
	C272.123535,503.140900 272.310120,501.561401 272.402222,500.781769 
	C274.751923,499.692291 276.498016,498.882690 278.244171,498.073090 
	C277.425140,497.386047 276.606110,496.699036 274.899536,496.007751 
M186.955444,496.026978 
	C190.209015,496.026978 193.462585,496.026978 196.716171,496.026978 
	C196.851807,495.355133 196.987457,494.683289 197.123093,494.011414 
	C194.553772,493.464600 191.984436,492.917786 189.415115,492.370972 
	C189.202744,491.977692 188.990372,491.584381 188.778015,491.191101 
	C189.960938,490.536957 191.120697,489.835480 192.333466,489.242279 
	C193.488754,488.677216 194.699356,488.225250 195.885635,487.723572 
	C194.772552,487.154388 193.651398,486.600342 192.548691,486.011719 
	C191.462021,485.431671 190.394058,484.816620 189.317902,484.216980 
	C190.394043,483.771088 191.457199,483.289795 192.549698,482.888458 
	C193.840759,482.414154 195.157196,482.008942 196.462631,481.573792 
	C196.313965,481.089478 196.165314,480.605164 196.016647,480.120850 
	C192.663788,480.120850 189.310944,480.120850 186.102524,480.120850 
	C186.102524,485.550873 186.102524,490.640533 186.955444,496.026978 
M249.398224,487.385864 
	C249.945831,489.242828 250.920670,491.094116 250.945602,492.958069 
	C250.987915,496.120636 252.214081,496.623535 253.493759,496.140900 
	C255.961960,490.076263 258.000488,485.067352 260.031952,480.075806 
	C255.005829,478.204620 255.698074,483.903503 253.151138,485.282349 
	C248.779556,479.916565 248.779556,479.916565 245.706558,480.606018 
	C246.833755,482.670715 247.931839,484.682068 249.398224,487.385864 
M103.652832,66.782692 
	C104.395355,67.083733 105.744843,67.717155 105.789330,67.635933 
	C106.450546,66.428497 107.466515,65.078537 107.355545,63.857014 
	C107.142029,61.506531 106.267487,59.216095 105.652061,56.842846 
	C101.594559,56.481552 99.618881,58.853432 99.027412,65.214722 
	C100.401894,65.521828 101.804169,65.835144 103.652832,66.782692 
M92.994606,60.857162 
	C91.340652,59.336079 89.815102,57.591980 87.915199,56.498035 
	C87.570312,56.299454 84.504730,59.146778 84.755363,59.921066 
	C85.400322,61.913498 87.200981,63.531826 88.492371,65.236992 
	C87.776131,65.521034 86.418152,66.059578 84.559944,66.796494 
	C90.310501,69.046547 92.149895,67.770653 92.994606,60.857162 
M289.448151,505.228699 
	C289.966156,504.749115 290.923645,504.279144 290.934357,503.788483 
	C291.044800,498.731598 291.002136,493.671356 291.002136,488.612030 
	C290.500214,488.347534 289.998291,488.083038 289.496338,487.818573 
	C288.675293,488.851654 287.219513,489.841675 287.145966,490.925476 
	C286.868042,495.022064 286.968201,499.151581 287.112579,503.262238 
	C287.136047,503.931335 288.097839,504.567505 289.448151,505.228699 
M403.930878,60.299091 
	C404.530762,61.799786 405.130646,63.300480 405.730530,64.801178 
	C406.374084,63.351963 407.036926,61.910744 407.644531,60.446598 
	C407.761444,60.164867 407.736725,59.771835 407.649902,59.466415 
	C406.964722,57.056927 406.248505,54.656250 405.541840,52.252865 
	C405.004822,54.636944 404.467773,57.021019 403.930878,60.299091 
M113.660721,64.259521 
	C113.660721,61.719307 113.660721,59.179092 113.660721,55.383453 
	C110.816856,57.053280 109.216080,57.993206 107.615303,58.933128 
	C107.725266,59.317787 107.835228,59.702446 107.945198,60.087109 
	C108.881828,60.235439 109.818459,60.383766 110.766571,60.533916 
	C110.912254,63.030010 111.057404,65.517014 111.202560,68.004013 
	C111.689896,68.067085 112.177223,68.130157 112.664558,68.193230 
	C112.994972,67.173195 113.325378,66.153168 113.660721,64.259521 
M402.065125,57.840778 
	C401.419983,56.942265 400.774811,56.043755 400.129639,55.145248 
	C399.542816,56.011803 398.384827,56.944485 398.476074,57.732536 
	C398.751587,60.112415 399.512299,62.436131 400.083832,64.781738 
	C400.745453,62.755371 401.407043,60.729004 402.065125,57.840778 
M393.075470,61.391453 
	C393.684998,62.530281 394.294556,63.669113 394.904083,64.807945 
	C395.574066,63.850128 396.731262,62.922096 396.792084,61.927048 
	C396.869965,60.653214 396.064728,59.325394 395.640045,58.020836 
	C394.787140,58.867157 393.934204,59.713478 393.075470,61.391453 
z"/>
<path fill="#141414" opacity="1.000000" stroke="none" 
	d="
M294.072693,18.002007 
	C298.548981,18.002342 302.564453,17.735163 306.511353,18.138618 
	C308.037720,18.294645 309.408691,19.970659 310.850464,20.954201 
	C309.438721,21.966312 308.027466,23.842880 306.615173,23.843651 
	C299.834412,23.847347 293.055908,23.156076 286.271820,23.063150 
	C274.974365,22.908401 263.671875,22.918699 252.374176,23.065790 
	C246.753052,23.138975 241.134705,23.916586 235.521942,23.844288 
	C233.827103,23.822454 232.155243,22.017506 230.472855,21.029343 
	C232.133881,20.019794 233.800476,18.128628 235.455078,18.139059 
	C249.714325,18.228954 263.970154,18.777708 278.229828,18.930632 
	C283.344116,18.985479 288.466034,18.332319 294.072693,18.002007 
z"/>
<path fill="#141414" opacity="1.000000" stroke="none" 
	d="
M202.120392,50.938728 
	C200.170441,48.910946 198.230087,47.058323 197.301483,44.791275 
	C197.057663,44.196026 199.768524,41.615952 201.441559,41.184475 
	C204.226501,40.466251 207.384827,40.997398 207.862488,44.680412 
	C208.346527,48.412563 206.145050,50.440422 202.120392,50.938728 
z"/>
<path fill="#B5B0AB" opacity="1.000000" stroke="none" 
	d="
M24.874418,106.548729 
	C24.684280,101.453545 24.653061,95.992844 24.916637,90.226227 
	C25.152067,95.341286 25.092701,100.762245 24.874418,106.548729 
z"/>
<path fill="#B5B0AB" opacity="1.000000" stroke="none" 
	d="
M516.115601,948.436646 
	C516.336487,953.191040 516.391479,958.308716 516.160645,963.733643 
	C515.899841,958.960632 515.924805,953.880310 516.115601,948.436646 
z"/>
<path fill="#B5B0AB" opacity="1.000000" stroke="none" 
	d="
M446.619812,1038.491943 
	C441.970703,1039.016846 436.872833,1039.396606 431.438843,1039.552979 
	C436.125519,1039.002075 441.148254,1038.674438 446.619812,1038.491943 
z"/>
<path fill="#B5B0AB" opacity="1.000000" stroke="none" 
	d="
M515.712158,91.336304 
	C516.150024,96.054291 516.438416,101.149834 516.498779,106.580185 
	C516.034729,101.847954 515.798706,96.780907 515.712158,91.336304 
z"/>
<path fill="#B5B0AB" opacity="1.000000" stroke="none" 
	d="
M27.653856,70.494583 
	C29.223778,65.258537 31.036283,59.736938 33.142132,54.087044 
	C31.589130,59.375507 29.742786,64.792274 27.653856,70.494583 
z"/>
<path fill="#B5B0AB" opacity="1.000000" stroke="none" 
	d="
M431.420349,15.907518 
	C434.526184,15.682457 437.984283,15.619587 441.740143,15.834759 
	C438.616150,16.098436 435.194397,16.084072 431.420349,15.907518 
z"/>
<path fill="#B5B0AB" opacity="1.000000" stroke="none" 
	d="
M99.322906,16.273098 
	C102.390686,15.872180 105.828552,15.602856 109.594727,15.554592 
	C106.513023,15.985332 103.103004,16.195011 99.322906,16.273098 
z"/>
<path fill="#B5B0AB" opacity="1.000000" stroke="none" 
	d="
M454.744080,1037.644531 
	C453.291046,1038.110229 451.513885,1038.460938 449.437164,1038.620483 
	C450.898407,1038.129395 452.659149,1037.829468 454.744080,1037.644531 
z"/>
<path fill="#B5B0AB" opacity="1.000000" stroke="none" 
	d="
M468.720825,1034.590088 
	C467.231506,1035.308594 465.389984,1035.970093 463.308655,1036.428223 
	C464.835449,1035.660889 466.602020,1035.097046 468.720825,1034.590088 
z"/>
<path fill="#B5B0AB" opacity="1.000000" stroke="none" 
	d="
M25.843121,83.632935 
	C25.661255,82.394241 25.660124,80.891830 25.916832,79.162292 
	C26.124401,80.413185 26.074131,81.891205 25.843121,83.632935 
z"/>
<path fill="#B5B0AB" opacity="1.000000" stroke="none" 
	d="
M514.769897,79.264603 
	C515.185669,80.423836 515.474426,81.877831 515.567139,83.606598 
	C515.128296,82.440704 514.885620,81.000038 514.769897,79.264603 
z"/>
<path fill="#B5B0AB" opacity="1.000000" stroke="none" 
	d="
M87.245338,17.278894 
	C88.407990,16.873589 89.869370,16.586037 91.610771,16.491535 
	C90.441879,16.921940 88.992981,17.159294 87.245338,17.278894 
z"/>
<path fill="#B5B0AB" opacity="1.000000" stroke="none" 
	d="
M515.184753,971.355957 
	C515.391296,972.595032 515.402466,974.086914 515.159424,975.804626 
	C514.933350,974.556580 514.961365,973.082642 515.184753,971.355957 
z"/>
<path fill="#B5B0AB" opacity="1.000000" stroke="none" 
	d="
M449.356018,16.838112 
	C450.594513,16.637812 452.093414,16.623978 453.817230,16.868187 
	C452.566895,17.092348 451.091644,17.058462 449.356018,16.838112 
z"/>
<path fill="#B5B0AB" opacity="1.000000" stroke="none" 
	d="
M510.779846,61.260681 
	C511.450684,62.429733 512.067322,63.928894 512.523682,65.659134 
	C511.817535,64.457077 511.271606,63.023933 510.779846,61.260681 
z"/>
<path fill="#B5B0AB" opacity="1.000000" stroke="none" 
	d="
M512.137634,989.335938 
	C512.023132,990.661316 511.677765,992.227783 511.086365,993.937744 
	C511.195801,992.579773 511.551270,991.078491 512.137634,989.335938 
z"/>
<path fill="#B5B0AB" opacity="1.000000" stroke="none" 
	d="
M509.529480,996.756348 
	C509.272217,997.985657 508.747528,999.399170 507.924866,1000.945068 
	C508.171936,999.698425 508.717010,998.319458 509.529480,996.756348 
z"/>
<path fill="#B5B0AB" opacity="1.000000" stroke="none" 
	d="
M481.720367,1028.325317 
	C480.835663,1029.182617 479.625549,1030.049316 478.067749,1030.891113 
	C478.945038,1030.022339 480.169983,1029.178467 481.720367,1028.325317 
z"/>
<path fill="#B5B0AB" opacity="1.000000" stroke="none" 
	d="
M507.605560,54.254417 
	C508.370758,55.209282 509.130005,56.485806 509.842163,58.107864 
	C509.063232,57.160954 508.331390,55.868515 507.605560,54.254417 
z"/>
<path fill="#B5B0AB" opacity="1.000000" stroke="none" 
	d="
M61.279552,25.487108 
	C62.194668,24.718405 63.426273,23.910463 65.002777,23.122669 
	C64.097122,23.911169 62.846584,24.679520 61.279552,25.487108 
z"/>
<path fill="#B5B0AB" opacity="1.000000" stroke="none" 
	d="
M488.743042,1023.353760 
	C488.161804,1024.160156 487.278168,1025.032471 486.055054,1025.884521 
	C486.623932,1025.049316 487.532288,1024.234497 488.743042,1023.353760 
z"/>
<path fill="#B5B0AB" opacity="1.000000" stroke="none" 
	d="
M459.753204,1036.784180 
	C459.039001,1037.198486 458.004150,1037.515625 456.634766,1037.705566 
	C457.344330,1037.281372 458.388458,1036.984131 459.753204,1036.784180 
z"/>
<path fill="#B5B0AB" opacity="1.000000" stroke="none" 
	d="
M26.602718,76.553192 
	C26.441761,75.703033 26.486774,74.642197 26.800610,73.277893 
	C26.982515,74.097122 26.895601,75.219818 26.602718,76.553192 
z"/>
<path fill="#B5B0AB" opacity="1.000000" stroke="none" 
	d="
M473.775055,1032.598877 
	C473.413635,1033.055542 472.754150,1033.468018 471.784729,1033.812988 
	C472.142151,1033.348511 472.809570,1032.951660 473.775055,1032.598877 
z"/>
<path fill="#B5B0AB" opacity="1.000000" stroke="none" 
	d="
M465.553467,19.571823 
	C466.136993,19.430107 466.918823,19.517937 467.885742,19.853477 
	C467.297791,20.001247 466.524780,19.901308 465.553467,19.571823 
z"/>
<path fill="#B5B0AB" opacity="1.000000" stroke="none" 
	d="
M513.850769,73.216309 
	C514.218872,73.675034 514.475220,74.361076 514.605286,75.413254 
	C514.232361,75.000809 513.985718,74.222221 513.850769,73.216309 
z"/>
<path fill="#B5B0AB" opacity="1.000000" stroke="none" 
	d="
M512.822754,68.226212 
	C513.206482,68.663887 513.498840,69.392181 513.676514,70.419380 
	C513.285034,69.984467 513.008179,69.250648 512.822754,68.226212 
z"/>
<path fill="#B5B0AB" opacity="1.000000" stroke="none" 
	d="
M477.831146,24.398922 
	C478.416290,24.405869 479.132263,24.671757 479.954285,25.223738 
	C479.360870,25.225842 478.661407,24.941853 477.831146,24.398922 
z"/>
<path fill="#B5B0AB" opacity="1.000000" stroke="none" 
	d="
M67.261971,22.416576 
	C67.625542,21.985239 68.292168,21.564590 69.278549,21.189623 
	C68.920547,21.632622 68.242783,22.029942 67.261971,22.416576 
z"/>
<path fill="#B5B0AB" opacity="1.000000" stroke="none" 
	d="
M484.748260,1026.315918 
	C484.495789,1026.835083 483.948395,1027.379150 483.087341,1027.907959 
	C483.333557,1027.375488 483.893433,1026.858276 484.748260,1026.315918 
z"/>
<path fill="#B5B0AB" opacity="1.000000" stroke="none" 
	d="
M494.696899,1018.049805 
	C494.527252,1018.632141 494.059204,1019.275208 493.269470,1019.947632 
	C493.431366,1019.354858 493.914948,1018.732666 494.696899,1018.049805 
z"/>
<path fill="#B5B0AB" opacity="1.000000" stroke="none" 
	d="
M471.661621,21.484291 
	C472.265045,21.427347 473.026306,21.625990 473.927795,22.102966 
	C473.318481,22.167492 472.569000,21.953684 471.661621,21.484291 
z"/>
<path fill="#B5B0AB" opacity="1.000000" stroke="none" 
	d="
M501.688568,1010.010620 
	C501.602936,1010.585632 501.242737,1011.252258 500.584229,1011.981506 
	C500.661957,1011.396790 501.037994,1010.749451 501.688568,1010.010620 
z"/>
<path fill="#B5B0AB" opacity="1.000000" stroke="none" 
	d="
M487.008789,30.310852 
	C487.578613,30.394199 488.242676,30.750397 488.974304,31.401321 
	C488.395569,31.325266 487.749298,30.954483 487.008789,30.310852 
z"/>
<path fill="#B5B0AB" opacity="1.000000" stroke="none" 
	d="
M73.252625,20.193424 
	C73.671570,19.803825 74.383934,19.488386 75.403732,19.254335 
	C74.989464,19.646341 74.267754,19.956963 73.252625,20.193424 
z"/>
<path fill="#B5B0AB" opacity="1.000000" stroke="none" 
	d="
M458.204346,17.942265 
	C458.622894,17.732086 459.188934,17.684593 459.886902,17.848364 
	C459.463165,18.074734 458.907471,18.089842 458.204346,17.942265 
z"/>
<path fill="#B5B0AB" opacity="1.000000" stroke="none" 
	d="
M513.335205,984.508301 
	C513.507385,985.092834 513.456360,985.886414 513.162231,986.878540 
	C512.983459,986.290466 513.047668,985.503906 513.335205,984.508301 
z"/>
<path fill="#B5B0AB" opacity="1.000000" stroke="none" 
	d="
M52.260864,31.675785 
	C52.489330,31.170790 53.002377,30.625637 53.818481,30.065300 
	C53.596172,30.578621 53.070805,31.107124 52.260864,31.675785 
z"/>
<path fill="#B5B0AB" opacity="1.000000" stroke="none" 
	d="
M514.289307,979.406616 
	C514.483765,979.978882 514.475220,980.710510 514.215088,981.726807 
	C514.004517,981.196289 514.045410,980.381165 514.289307,979.406616 
z"/>
<path fill="#B5B0AB" opacity="1.000000" stroke="none" 
	d="
M81.209831,18.185490 
	C81.527290,17.887346 82.094597,17.682793 82.798759,17.641657 
	C82.443634,17.963078 81.951660,18.121080 81.209831,18.185490 
z"/>
<path fill="#1E2734" opacity="1.000000" stroke="none" 
	d="
M288.000122,1005.405884 
	C309.145752,1005.405884 329.791351,1005.403809 350.436951,1005.410706 
	C351.766998,1005.411133 353.290466,1005.091431 354.373108,1005.628296 
	C355.473267,1006.173767 356.606384,1007.510986 356.815979,1008.666443 
	C356.938110,1009.339844 355.412567,1010.647095 354.379120,1011.098694 
	C353.395447,1011.528442 352.087769,1011.229126 350.922546,1011.229187 
	C297.144104,1011.231262 243.365646,1011.231628 189.587204,1011.227661 
	C188.422958,1011.227600 187.078522,1011.529114 186.143967,1011.051880 
	C185.162643,1010.550781 183.975494,1009.276917 183.981369,1008.347595 
	C183.987289,1007.410339 185.177414,1006.025330 186.155975,1005.660339 
	C187.483932,1005.165039 189.104202,1005.412231 190.599106,1005.411865 
	C222.899445,1005.403931 255.199783,1005.405762 288.000122,1005.405884 
z"/>
<path fill="#0D0F0C" opacity="1.000000" stroke="none" 
	d="
M299.000122,476.248840 
	C320.450165,476.248322 341.400208,476.248322 362.660889,476.248322 
	C362.660889,478.369263 362.660889,480.104828 362.660889,482.023560 
	C330.851257,482.023560 299.105988,482.023560 267.171570,482.023560 
	C267.171570,480.207520 267.171570,478.581665 267.171570,476.249390 
	C277.666718,476.249390 288.083435,476.249390 299.000122,476.248840 
z"/>
<path fill="#090A08" opacity="1.000000" stroke="none" 
	d="
M240.999878,508.835632 
	C220.882858,508.836121 201.265823,508.836121 181.278076,508.836121 
	C181.173187,506.523376 181.085632,504.592468 180.980209,502.267883 
	C208.529816,502.267883 235.902008,502.267883 263.585419,502.267883 
	C263.585419,504.258087 263.585419,506.291718 263.585419,508.835144 
	C256.071503,508.835144 248.785690,508.835144 240.999878,508.835632 
z"/>
<path fill="#10120F" opacity="1.000000" stroke="none" 
	d="
M334.044800,505.271301 
	C331.762085,503.523895 329.832306,501.774933 327.748749,499.886566 
	C325.740723,501.234070 328.589508,506.765320 323.106506,504.891144 
	C323.106506,499.624603 323.106506,494.243988 323.106506,488.531464 
	C327.516907,488.424225 332.578186,486.632416 335.282593,491.198517 
	C336.538452,493.318909 335.129059,497.017853 334.673798,500.019379 
	C334.581787,501.769470 334.489777,503.519592 334.044800,505.271301 
z"/>
<path fill="#1D1F29" opacity="1.000000" stroke="none" 
	d="
M461.059570,54.014877 
	C460.417480,63.004330 460.417480,63.004330 451.070129,63.004330 
	C447.267120,63.004330 443.464111,63.004330 439.329193,63.004330 
	C439.329193,60.088913 439.329193,57.369820 439.329193,54.490421 
	C446.187439,54.490421 453.232422,54.490421 460.699829,54.284721 
	C461.122192,54.079021 461.059570,54.014877 461.059570,54.014877 
z"/>
<path fill="#10120F" opacity="1.000000" stroke="none" 
	d="
M358.078674,499.782257 
	C358.769226,501.658569 359.359131,503.169281 359.949036,504.679962 
	C359.869324,505.160614 359.789642,505.641235 359.709961,506.121887 
	C354.313232,501.799316 348.906921,501.824554 343.491180,506.109436 
	C343.403809,505.616455 343.316437,505.123505 343.229065,504.630554 
	C345.110138,499.890533 346.895569,495.108368 348.951782,490.445557 
	C349.371094,489.494629 350.824066,488.421844 351.771423,488.448364 
	C352.670227,488.473511 353.867371,489.703491 354.344299,490.688782 
	C355.715210,493.520782 356.788086,496.497040 358.078674,499.782257 
z"/>
<path fill="#10120F" opacity="1.000000" stroke="none" 
	d="
M304.962219,488.963684 
	C306.730499,489.355865 309.084717,489.639191 309.646973,490.794556 
	C311.790039,495.198273 313.355194,499.883270 315.003845,505.411163 
	C309.544586,502.326355 304.203552,500.936523 299.003235,506.231934 
	C298.823975,505.717316 298.644745,505.202728 298.465485,504.688110 
	C300.552063,499.543854 302.638611,494.399567 304.962219,488.963684 
z"/>
<path fill="#10120F" opacity="1.000000" stroke="none" 
	d="
M233.684830,492.959137 
	C234.171021,492.071381 234.625183,490.829041 234.274124,490.528992 
	C233.441681,489.817688 232.260361,489.432709 231.160950,489.131622 
	C228.238998,488.331482 225.191177,486.959686 226.282883,483.600525 
	C226.903198,481.691833 229.823868,479.611115 231.939667,479.326721 
	C235.001190,478.915161 238.184814,480.166168 238.452576,484.982605 
	C235.552597,484.118896 233.003494,483.359711 230.454391,482.600525 
	C230.227768,483.239258 230.001160,483.877991 229.774536,484.516724 
	C231.100403,485.168213 232.559753,485.641541 233.721558,486.511963 
	C235.565948,487.893829 237.654434,489.290741 238.730438,491.195007 
	C239.181061,491.992523 237.541687,495.160736 236.441193,495.406097 
	C233.871262,495.979004 230.993073,495.729065 228.362930,495.200012 
	C227.292511,494.984680 226.541794,493.180206 225.645615,492.098785 
	C225.881226,491.693817 226.116837,491.288849 226.352448,490.883881 
	C228.663895,491.600220 230.975327,492.316559 233.684830,492.959137 
z"/>
<path fill="#10120F" opacity="1.000000" stroke="none" 
	d="
M206.779892,486.678772 
	C208.320862,484.135620 209.442963,480.417999 211.211563,480.079590 
	C215.351715,479.287506 214.634155,484.000977 215.901230,486.351776 
	C217.445724,489.217224 218.374588,492.414459 219.331253,496.263458 
	C213.963882,492.029938 208.791199,491.521729 203.666611,497.581451 
	C203.532700,496.920166 203.398773,496.258911 203.264862,495.597626 
	C204.394836,492.745026 205.524826,489.892456 206.779892,486.678772 
z"/>
<path fill="#141414" opacity="1.000000" stroke="none" 
	d="
M275.343292,496.009888 
	C276.606110,496.699036 277.425140,497.386047 278.244141,498.073059 
	C276.498016,498.882690 274.751923,499.692291 272.402222,500.781769 
	C272.310120,501.561401 272.123535,503.140900 271.755951,506.252625 
	C270.142242,504.832153 268.356628,504.011139 268.299744,503.084045 
	C268.009460,498.352142 268.165680,493.592865 268.165680,488.170898 
	C272.214783,489.136047 276.546173,486.092621 280.160583,491.608185 
	C276.818604,491.895081 274.751862,492.072510 272.685120,492.249939 
	C272.391968,492.604492 272.098816,492.959015 271.805664,493.313538 
	C272.836975,494.211609 273.868256,495.109680 275.343292,496.009888 
z"/>
<path fill="#090A08" opacity="1.000000" stroke="none" 
	d="
M186.528992,495.878601 
	C186.102524,490.640533 186.102524,485.550873 186.102524,480.120850 
	C189.310944,480.120850 192.663788,480.120850 196.016647,480.120850 
	C196.165314,480.605164 196.313965,481.089478 196.462631,481.573792 
	C195.157196,482.008942 193.840759,482.414154 192.549698,482.888458 
	C191.457199,483.289795 190.394043,483.771088 189.317902,484.216980 
	C190.394058,484.816620 191.462021,485.431671 192.548691,486.011719 
	C193.651398,486.600342 194.772552,487.154388 195.885635,487.723572 
	C194.699356,488.225250 193.488754,488.677216 192.333466,489.242279 
	C191.120697,489.835480 189.960938,490.536957 188.778015,491.191101 
	C188.990372,491.584381 189.202744,491.977692 189.415115,492.370972 
	C191.984436,492.917786 194.553772,493.464600 197.123093,494.011414 
	C196.987457,494.683289 196.851807,495.355133 196.716171,496.026978 
	C193.462585,496.026978 190.209015,496.026978 186.528992,495.878601 
z"/>
<path fill="#0D0F0C" opacity="1.000000" stroke="none" 
	d="
M249.214081,487.039642 
	C247.931839,484.682068 246.833755,482.670715 245.706558,480.606018 
	C248.779556,479.916565 248.779556,479.916565 253.151138,485.282349 
	C255.698074,483.903503 255.005829,478.204620 260.031952,480.075806 
	C258.000488,485.067352 255.961960,490.076263 253.493759,496.140900 
	C252.214081,496.623535 250.987915,496.120636 250.945602,492.958069 
	C250.920670,491.094116 249.945831,489.242828 249.214081,487.039642 
z"/>
<path fill="#32383B" opacity="1.000000" stroke="none" 
	d="
M103.429642,66.465576 
	C101.804169,65.835144 100.401894,65.521828 99.027412,65.214722 
	C99.618881,58.853432 101.594559,56.481552 105.652061,56.842846 
	C106.267487,59.216095 107.142029,61.506531 107.355545,63.857014 
	C107.466515,65.078537 106.450546,66.428497 105.789330,67.635933 
	C105.744843,67.717155 104.395355,67.083733 103.429642,66.465576 
z"/>
<path fill="#32383B" opacity="1.000000" stroke="none" 
	d="
M93.024902,61.261383 
	C92.149895,67.770653 90.310501,69.046547 84.559944,66.796494 
	C86.418152,66.059578 87.776131,65.521034 88.492371,65.236992 
	C87.200981,63.531826 85.400322,61.913498 84.755363,59.921066 
	C84.504730,59.146778 87.570312,56.299454 87.915199,56.498035 
	C89.815102,57.591980 91.340652,59.336079 93.024902,61.261383 
z"/>
<path fill="#090A08" opacity="1.000000" stroke="none" 
	d="
M289.037048,505.223785 
	C288.097839,504.567505 287.136047,503.931335 287.112579,503.262238 
	C286.968201,499.151581 286.868042,495.022064 287.145966,490.925476 
	C287.219513,489.841675 288.675293,488.851654 289.496338,487.818573 
	C289.998291,488.083038 290.500214,488.347534 291.002136,488.612030 
	C291.002136,493.671356 291.044800,498.731598 290.934357,503.788483 
	C290.923645,504.279144 289.966156,504.749115 289.037048,505.223785 
z"/>
<path fill="#32383B" opacity="1.000000" stroke="none" 
	d="
M427.001801,56.988831 
	C424.536194,53.400524 421.341705,55.009624 418.307404,55.828598 
	C416.956360,56.193245 415.675812,56.818935 413.385468,57.703972 
	C417.471405,50.500420 426.477478,50.347282 431.654358,57.157608 
	C429.792511,56.874489 428.745483,56.715279 427.326294,56.753719 
	C426.954132,56.951374 427.001801,56.988831 427.001801,56.988831 
z"/>
<path fill="#32383B" opacity="1.000000" stroke="none" 
	d="
M403.930817,59.852097 
	C404.467773,57.021019 405.004822,54.636944 405.541870,52.252861 
	C406.248505,54.656250 406.964722,57.056927 407.649902,59.466415 
	C407.736725,59.771835 407.761444,60.164867 407.644531,60.446598 
	C407.036926,61.910744 406.374084,63.351963 405.730530,64.801178 
	C405.130646,63.300480 404.530762,61.799786 403.930817,59.852097 
z"/>
<path fill="#32383B" opacity="1.000000" stroke="none" 
	d="
M113.658257,64.696335 
	C113.325378,66.153168 112.994972,67.173195 112.664558,68.193230 
	C112.177223,68.130157 111.689896,68.067085 111.202560,68.004013 
	C111.057404,65.517014 110.912254,63.030010 110.766571,60.533916 
	C109.818459,60.383766 108.881828,60.235439 107.945198,60.087109 
	C107.835228,59.702446 107.725266,59.317787 107.615303,58.933128 
	C109.216080,57.993206 110.816856,57.053280 113.660721,55.383453 
	C113.660721,59.179092 113.660721,61.719307 113.658257,64.696335 
z"/>
<path fill="#32383B" opacity="1.000000" stroke="none" 
	d="
M402.066895,58.271706 
	C401.407043,60.729004 400.745453,62.755371 400.083862,64.781738 
	C399.512299,62.436131 398.751587,60.112415 398.476074,57.732536 
	C398.384827,56.944485 399.542816,56.011803 400.129639,55.145245 
	C400.774811,56.043755 401.419983,56.942265 402.066895,58.271706 
z"/>
<path fill="#1D1F29" opacity="1.000000" stroke="none" 
	d="
M462.523346,53.572075 
	C462.672363,54.039585 462.925598,54.500626 462.955109,54.975559 
	C463.588104,65.170227 463.583252,65.170540 453.335785,65.170631 
	C448.440430,65.170677 443.545105,65.170639 438.649750,65.170639 
	C438.656158,64.778976 438.662567,64.387321 438.669006,63.995663 
	C444.284607,63.995663 449.900238,63.997681 455.515869,63.995140 
	C462.005524,63.992199 462.006989,63.990448 461.993561,57.416981 
	C461.991852,56.585224 461.965118,55.753521 462.101379,54.360535 
	C462.252808,53.799278 462.523346,53.572071 462.523346,53.572075 
z"/>
<path fill="#32383B" opacity="1.000000" stroke="none" 
	d="
M426.932037,56.930603 
	C427.219116,57.904419 427.528290,58.898998 427.828552,59.864876 
	C424.095703,59.864876 420.690247,59.864876 417.212372,59.864876 
	C419.219025,56.307388 420.347504,55.990227 426.632111,57.090561 
	C427.001801,56.988831 426.954132,56.951374 426.932037,56.930603 
z"/>
<path fill="#32383B" opacity="1.000000" stroke="none" 
	d="
M393.078369,60.975628 
	C393.934204,59.713478 394.787140,58.867157 395.640045,58.020836 
	C396.064728,59.325394 396.869965,60.653214 396.792084,61.927048 
	C396.731262,62.922096 395.574066,63.850128 394.904114,64.807945 
	C394.294556,63.669113 393.684998,62.530281 393.078369,60.975628 
z"/>
<path fill="#1D1F29" opacity="1.000000" stroke="none" 
	d="
M461.159302,54.104172 
	C458.525787,53.754322 455.863525,53.152863 453.182739,53.054020 
	C448.395691,52.877514 443.597473,53.004330 438.803894,53.004330 
	C438.821533,52.483471 438.839142,51.962612 438.856750,51.441750 
	C446.586182,51.929363 454.315582,52.416973 462.284180,53.238327 
	C462.523346,53.572071 462.252808,53.799278 462.115448,53.910351 
	C461.978088,54.021423 461.516144,54.008385 461.287842,54.011631 
	C461.059570,54.014877 461.122192,54.079021 461.159302,54.104172 
z"/>
</svg>